<svg width="50" height="50" viewBox="0 0 50 50" fill="none" xmlns="http://www.w3.org/2000/svg">
<path d="M8.33366 41.6666C7.18783 41.6666 6.20692 41.2587 5.39095 40.4427C4.57498 39.6267 4.16699 38.6458 4.16699 37.5V12.5C4.16699 11.3541 4.57498 10.3732 5.39095 9.55727C6.20692 8.7413 7.18783 8.33331 8.33366 8.33331H41.667C42.8128 8.33331 43.7937 8.7413 44.6097 9.55727C45.4257 10.3732 45.8337 11.3541 45.8337 12.5V37.5C45.8337 38.6458 45.4257 39.6267 44.6097 40.4427C43.7937 41.2587 42.8128 41.6666 41.667 41.6666H8.33366ZM25.0003 27.0833L8.33366 16.6666V37.5H41.667V16.6666L25.0003 27.0833ZM25.0003 22.9166L41.667 12.5H8.33366L25.0003 22.9166ZM8.33366 16.6666V12.5V37.5V16.6666Z" fill="#030303"/>
</svg>
