<svg width="47" height="47" viewBox="0 0 47 47" fill="none" xmlns="http://www.w3.org/2000/svg">
<g clip-path="url(#clip0_35_31)">
<g clip-path="url(#clip1_35_31)">
<path d="M32.9463 1.91399H33.3691V1.92864C37.1868 2.11322 40.3188 3.54342 42.5479 5.82317C44.9584 8.28895 46.1235 11.5558 46.1191 14.749C46.1147 17.9424 44.9396 21.2034 42.4951 23.6357C40.2589 25.8606 37.1417 27.2108 33.3691 27.3329V27.3359H33.3105C32.9843 27.3453 32.6532 27.345 32.3174 27.3359H24.623L31.5488 38.7753H44.8086V45.1308H27.6201L16.7012 27.3359H16.7002L12.8018 20.9804H32.3359V20.9784C32.3702 20.9798 32.4045 20.9793 32.4385 20.9804H33.1494C35.4852 20.9097 37.0316 20.106 38.0127 19.1298C39.145 18.003 39.7613 16.4152 39.7637 14.7402C39.7659 13.065 39.1522 11.4422 38.0029 10.2665C36.9689 9.20898 35.3337 8.34331 32.8662 8.26946H5.00098L1.10059 1.91399H32.207V1.91106C32.4561 1.9068 32.7026 1.90815 32.9463 1.91399Z" fill="url(#paint0_linear_35_31)"/>
<path d="M32.9463 1.91399H33.3691V1.92864C37.1868 2.11322 40.3188 3.54342 42.5479 5.82317C44.9584 8.28895 46.1235 11.5558 46.1191 14.749C46.1147 17.9424 44.9396 21.2034 42.4951 23.6357C40.2589 25.8606 37.1417 27.2108 33.3691 27.3329V27.3359H33.3105C32.9843 27.3453 32.6532 27.345 32.3174 27.3359H24.623L31.5488 38.7753H44.8086V45.1308H27.6201L16.7012 27.3359H16.7002L12.8018 20.9804H32.3359V20.9784C32.3702 20.9798 32.4045 20.9793 32.4385 20.9804H33.1494C35.4852 20.9097 37.0316 20.106 38.0127 19.1298C39.145 18.003 39.7613 16.4152 39.7637 14.7402C39.7659 13.065 39.1522 11.4422 38.0029 10.2665C36.9689 9.20898 35.3337 8.34331 32.8662 8.26946H5.00098L1.10059 1.91399H32.207V1.91106C32.4561 1.9068 32.7026 1.90815 32.9463 1.91399Z" fill="url(#paint1_linear_35_31)"/>
<path d="M1.59107 21.5378L1.59107 20.983L7.94687 20.983L22.7649 45.1276L16.4252 45.1301L1.59107 21.5378Z" fill="#123458"/>
<path d="M1.59172 39.0924L1.59269 28.6036L11.7447 45.1277L5.4051 45.1302L1.59172 39.0924Z" fill="#4B7DAA"/>
</g>
</g>
<defs>
<linearGradient id="paint0_linear_35_31" x1="24.0848" y1="21.5866" x2="12.0159" y2="29.1365" gradientUnits="userSpaceOnUse">
<stop stop-color="#030303"/>
<stop offset="1" stop-color="#123458"/>
</linearGradient>
<linearGradient id="paint1_linear_35_31" x1="24.0848" y1="21.5866" x2="12.0159" y2="29.1365" gradientUnits="userSpaceOnUse">
<stop stop-color="#030303"/>
<stop offset="1" stop-color="#123458"/>
</linearGradient>
<clipPath id="clip0_35_31">
<rect width="47" height="45.5113" fill="white" transform="translate(0 0.744385)"/>
</clipPath>
<clipPath id="clip1_35_31">
<rect width="47" height="45.5113" fill="white" transform="translate(0 0.744385)"/>
</clipPath>
</defs>
</svg>
