<svg width="86" height="83" viewBox="0 0 86 83" fill="none" xmlns="http://www.w3.org/2000/svg">
<g clip-path="url(#clip0_285_57)">
<g clip-path="url(#clip1_285_57)">
<path d="M30.4551 48.4904H44.9025L64.5563 80.948H50.3724L30.4551 48.4904Z" fill="white"/>
<path d="M50.3789 69.3575H81.7182V80.948H50.3789V69.3575Z" fill="white"/>
<path d="M2.00781 2.13318H60.856V13.7236H9.12017L2.00781 2.13318Z" fill="white"/>
<path d="M23.3467 36.9044H60.8554V48.4948H30.4565L23.3467 36.9044Z" fill="white"/>
<path d="M58.7354 2.12649C66.6621 1.99044 73.1241 4.68892 77.5947 9.26126C81.9915 13.7582 84.1162 19.7159 84.1084 25.5396C84.1004 31.3635 81.957 37.3098 77.499 41.7456C72.9649 46.2571 66.4466 48.8008 58.5059 48.482L58.7383 42.6909L58.9707 36.9009C64.0714 37.1057 67.3346 35.5084 69.3242 33.5288C71.3892 31.4738 72.5133 28.5788 72.5176 25.524C72.5216 22.4686 71.4031 19.508 69.3066 17.3638C67.2838 15.2952 64.0001 13.6284 58.9346 13.7154L58.835 7.92044L58.7354 2.12649Z" fill="white"/>
<path d="M2.90319 37.9214L2.90319 36.9096L14.4944 36.9096L41.5183 80.9426L29.9566 80.9472L2.90319 37.9214Z" fill="white"/>
<path d="M2.90316 69.9365L2.90494 50.8078L21.4194 80.9432L9.8577 80.9477L2.90316 69.9365Z" fill="white"/>
</g>
</g>
<defs>
<clipPath id="clip0_285_57">
<rect width="86" height="83" fill="white"/>
</clipPath>
<clipPath id="clip1_285_57">
<rect width="85.715" height="83" fill="white"/>
</clipPath>
</defs>
</svg>
