<svg width="47" height="54" viewBox="0 0 47 54" fill="none" xmlns="http://www.w3.org/2000/svg">
<path d="M6.35823 1.59516C6.64856 1.29973 6.64443 0.824872 6.34901 0.534537C6.05358 0.244201 5.57872 0.24833 5.28839 0.543759L6.35823 1.59516ZM13.4529 12.6666L12.9712 12.0917L13.4529 12.6666ZM22.6087 36.7765L22.7937 36.0496L22.6087 36.7765ZM39.1981 53.4717C39.4012 53.8327 39.8585 53.9608 40.2195 53.7577L46.1026 50.4484C46.4636 50.2454 46.5917 49.7881 46.3886 49.4271C46.1855 49.066 45.7282 48.938 45.3672 49.1411L40.1378 52.0826L37.1962 46.8532C36.9931 46.4922 36.5358 46.3641 36.1748 46.5672C35.8138 46.7703 35.6858 47.2276 35.8888 47.5886L39.1981 53.4717ZM5.82331 1.06946L5.28839 0.543759C0.787399 5.12371 -0.399677 9.8786 0.593149 14.2122C1.57454 18.4959 4.65441 22.2321 8.42137 24.913C12.1905 27.5954 16.7418 29.2902 20.8 29.4148C24.8689 29.5397 28.579 28.0709 30.3108 24.2695L29.6282 23.9586L28.9457 23.6476C27.5493 26.713 24.5452 28.029 20.8461 27.9155C17.1362 27.8016 12.8656 26.2348 9.29112 23.6908C5.71443 21.1454 2.9289 17.6905 2.05527 13.8772C1.19307 10.1138 2.16136 5.86566 6.35823 1.59516L5.82331 1.06946ZM29.6282 23.9586L30.3108 24.2695C31.9285 20.7184 32.11 17.786 31.2359 15.4703C30.3616 13.1541 28.4861 11.6002 26.2897 10.6952C24.0978 9.79205 21.5383 9.51123 19.1645 9.75808C16.7995 10.004 14.5327 10.7835 12.9712 12.0917L13.4529 12.6666L13.9345 13.2415C15.1961 12.1845 17.1448 11.4762 19.3196 11.25C21.4856 11.0248 23.7901 11.2876 25.7183 12.0821C27.642 12.8747 29.1427 14.1723 29.8325 16C30.5226 17.8283 30.4562 20.332 28.9457 23.6476L29.6282 23.9586ZM13.4529 12.6666L12.9712 12.0917C8.73192 15.6435 6.67325 20.8854 7.96505 25.8592C9.26157 30.8512 13.863 35.3242 22.4236 37.5033L22.6087 36.7765L22.7937 36.0496C14.569 33.9561 10.5321 29.7761 9.41689 25.4822C8.29695 21.1701 10.0531 16.4935 13.9345 13.2415L13.4529 12.6666ZM22.6087 36.7765L22.4236 37.5033C25.0645 38.1755 27.6293 38.8086 29.9611 39.5616C32.294 40.315 34.3427 41.1731 35.9542 42.2723C37.5561 43.3649 38.7014 44.6783 39.2802 46.347C39.8608 48.0208 39.9025 50.1415 39.1296 52.9018L39.8518 53.104L40.574 53.3062C41.4033 50.3443 41.4057 47.8976 40.6974 45.8554C39.9873 43.8083 38.5939 42.2571 36.7995 41.0331C35.0147 39.8157 32.8092 38.9051 30.4221 38.1342C28.0339 37.363 25.4127 36.7163 22.7937 36.0496L22.6087 36.7765Z" fill="#123458"/>
</svg>
