<svg width="394" height="382" viewBox="0 0 394 382" fill="none" xmlns="http://www.w3.org/2000/svg">
<rect width="393.187" height="382" rx="30" fill="#F1EFEC"/>
<g clip-path="url(#clip0_217_120)">
<path d="M262.02 28.7628C264.016 28.7285 265.989 28.7381 267.939 28.7901H270.755V28.8956C299.443 30.2825 322.977 41.0301 339.728 58.1622C357.845 76.6921 366.599 101.24 366.566 125.236C366.534 149.234 357.704 173.738 339.334 192.016C322.528 208.737 299.107 218.896 270.755 219.813V219.822H270.473C267.862 219.901 265.209 219.902 262.517 219.822H205.031L257.083 305.786H356.719V353.544H286.001L286.002 353.545H227.558L145.501 219.822H145.497L116.201 172.064H262.987L262.988 172.051C263.11 172.056 263.231 172.059 263.353 172.064H269.731C286.935 171.409 298.362 165.408 305.647 158.159C314.158 149.691 318.788 137.761 318.806 125.172C318.823 112.582 314.217 100.387 305.578 91.5519C297.835 83.6329 285.61 77.1432 267.179 76.5479H57.5791L28.2725 28.7901H262.02V28.7628Z" fill="url(#paint0_linear_217_120)"/>
<path d="M262.02 28.7628C264.016 28.7285 265.989 28.7381 267.939 28.7901H270.755V28.8956C299.443 30.2825 322.977 41.0301 339.728 58.1622C357.845 76.6921 366.599 101.24 366.566 125.236C366.534 149.234 357.704 173.738 339.334 192.016C322.528 208.737 299.107 218.896 270.755 219.813V219.822H270.473C267.862 219.901 265.209 219.902 262.517 219.822H205.031L257.083 305.786H356.719V353.544H286.001L286.002 353.545H227.558L145.501 219.822H145.497L116.201 172.064H262.987L262.988 172.051C263.11 172.056 263.231 172.059 263.353 172.064H269.731C286.935 171.409 298.362 165.408 305.647 158.159C314.158 149.691 318.788 137.761 318.806 125.172C318.823 112.582 314.217 100.387 305.578 91.5519C297.835 83.6329 285.61 77.1432 267.179 76.5479H57.5791L28.2725 28.7901H262.02V28.7628Z" fill="url(#paint1_linear_217_120)"/>
<path d="M31.9615 176.255L31.9616 172.085L79.7229 172.085L191.074 353.523L143.435 353.541L31.9615 176.255Z" fill="#123458"/>
<path d="M31.9633 308.171L31.9706 229.352L108.259 353.524L60.6193 353.543L31.9633 308.171Z" fill="#4B7DAA"/>
</g>
<defs>
<linearGradient id="paint0_linear_217_120" x1="200.989" y1="176.617" x2="110.295" y2="233.351" gradientUnits="userSpaceOnUse">
<stop stop-color="#030303"/>
<stop offset="1" stop-color="#123458"/>
</linearGradient>
<linearGradient id="paint1_linear_217_120" x1="200.989" y1="176.617" x2="110.295" y2="233.351" gradientUnits="userSpaceOnUse">
<stop stop-color="#030303"/>
<stop offset="1" stop-color="#123458"/>
</linearGradient>
<clipPath id="clip0_217_120">
<rect width="353.187" height="342" fill="white" transform="translate(20 20)"/>
</clipPath>
</defs>
</svg>
